<svg width="44" height="61" viewBox="0 0 44 61" fill="none" xmlns="http://www.w3.org/2000/svg">
<g id="chevron-right">
<path id="Vector" fill-rule="evenodd" clip-rule="evenodd" d="M12.7541 6.20837C12.8782 6.03274 13.0258 5.89339 13.1882 5.79832C13.3506 5.70324 13.5247 5.6543 13.7005 5.6543C13.8764 5.6543 14.0505 5.70324 14.2129 5.79832C14.3753 5.89339 14.5228 6.03274 14.647 6.20837L30.6886 28.8401C30.8131 29.0153 30.9119 29.2234 30.9793 29.4526C31.0467 29.6817 31.0814 29.9273 31.0814 30.1754C31.0814 30.4235 31.0467 30.6691 30.9793 30.8982C30.9119 31.1274 30.8131 31.3355 30.6886 31.5107L14.647 54.1424C14.396 54.4966 14.0555 54.6955 13.7005 54.6955C13.3455 54.6955 13.0051 54.4966 12.7541 54.1424C12.503 53.7883 12.362 53.308 12.362 52.8072C12.362 52.3063 12.503 51.826 12.7541 51.4719L27.8519 30.1754L12.7541 8.87892C12.6296 8.70373 12.5308 8.49561 12.4634 8.26648C12.396 8.03735 12.3613 7.79172 12.3613 7.54365C12.3613 7.29558 12.396 7.04994 12.4634 6.82081C12.5308 6.59169 12.6296 6.38357 12.7541 6.20837Z" fill="#FDFDFD"/>
</g>
</svg>
