<svg width="44" height="61" viewBox="0 0 44 61" fill="none" xmlns="http://www.w3.org/2000/svg">
<g id="chevron-left">
<path id="Vector" fill-rule="evenodd" clip-rule="evenodd" d="M31.2443 6.20837C31.3688 6.38357 31.4676 6.59169 31.535 6.82081C31.6024 7.04994 31.6371 7.29558 31.6371 7.54365C31.6371 7.79172 31.6024 8.03735 31.535 8.26648C31.4676 8.49561 31.3688 8.70373 31.2443 8.87892L16.1464 30.1754L31.2443 51.4719C31.4953 51.826 31.6363 52.3063 31.6363 52.8072C31.6363 53.308 31.4953 53.7883 31.2443 54.1424C30.9933 54.4966 30.6528 54.6955 30.2979 54.6955C29.9429 54.6955 29.6024 54.4966 29.3514 54.1424L13.3097 31.5107C13.1852 31.3355 13.0865 31.1274 13.0191 30.8982C12.9517 30.6691 12.917 30.4235 12.917 30.1754C12.917 29.9273 12.9517 29.6817 13.0191 29.4526C13.0865 29.2234 13.1852 29.0153 13.3097 28.8401L29.3514 6.20837C29.4756 6.03274 29.6231 5.89339 29.7855 5.79832C29.9479 5.70324 30.122 5.6543 30.2979 5.6543C30.4737 5.6543 30.6478 5.70324 30.8102 5.79832C30.9726 5.89339 31.1201 6.03274 31.2443 6.20837Z" fill="#FDFDFD"/>
</g>
</svg>
