<svg width="52" height="44" viewBox="0 0 52 44" fill="none" xmlns="http://www.w3.org/2000/svg">
<path id="Vector" d="M28.8919 4.88735C31.3439 6.34522 33.3162 7.62259 34.8221 8.70558C36.3414 9.73304 37.8739 11.1215 39.4331 12.8571C40.899 14.4815 42.0051 16.1893 42.7914 17.9804C43.5777 19.7715 44.124 22.0764 44.4305 24.8949H40.6858C37.4475 24.8949 34.9288 25.728 33.103 27.4219C31.2373 29.0464 30.3045 31.4484 30.3045 34.6557C30.3045 36.9328 31.1307 39.071 32.7965 41.0843C34.409 43.0281 36.6479 44 39.5131 44C43.9908 44 47.1891 42.5005 49.1082 39.4598C51.0405 36.3635 52 32.3231 52 27.3386C52 23.8119 51.2804 20.6046 49.8144 17.7305C48.41 14.8809 46.6242 12.2537 44.5105 9.92742C42.3783 7.59483 40.1128 5.62323 37.714 3.98486C35.3152 2.36037 33.3162 1.02745 31.7037 0L28.8919 4.88735ZM0 4.88735C2.45208 6.34522 4.42439 7.62259 5.93029 8.70558C7.44951 9.73304 8.98206 11.1215 10.5413 12.8571C12.0472 14.5232 13.2066 16.2726 13.9795 18.0637C14.7125 19.7993 15.2322 22.0764 15.5387 24.8949H11.794C8.56894 24.8949 6.0369 25.728 4.21117 27.4219C2.34546 29.0464 1.41261 31.4484 1.41261 34.6557C1.41261 36.9328 2.23885 39.071 3.90467 41.0843C5.51717 43.0281 7.75602 44 10.6212 44C15.0989 44 18.2973 42.5005 20.2163 39.4598C22.1486 36.3635 23.1082 32.3231 23.1082 27.3386C23.1082 23.8119 22.3885 20.6046 20.9226 17.7305C19.5179 14.8811 17.7321 12.2539 15.6187 9.92742C13.4864 7.59483 11.2209 5.62323 8.82214 3.98486C6.42337 2.36037 4.4244 1.02745 2.8119 0L0 4.88735Z" fill="url(#paint0_linear_993_6508)"/>
<defs>
<linearGradient id="paint0_linear_993_6508" x1="26" y1="0" x2="26" y2="44" gradientUnits="userSpaceOnUse">
<stop stop-color="#03989E"/>
<stop offset="1" stop-color="#9747FF"/>
</linearGradient>
</defs>
</svg>
