<svg width="52" height="44" viewBox="0 0 52 44" fill="none" xmlns="http://www.w3.org/2000/svg">
<path id="Vector" d="M23.1081 4.88735C21.0836 6.07777 19.1053 7.35151 17.1779 8.70558C15.4892 9.89517 13.9414 11.2887 12.5669 12.8571C11.1878 14.3634 10.0535 16.0939 9.20861 17.9804C8.43567 19.7715 7.87596 22.0764 7.56945 24.8949H11.3275C14.5525 24.8949 17.0712 25.728 18.897 27.4219C20.7627 29.0464 21.6955 31.4484 21.6955 34.6557C21.6554 37.0457 20.7677 39.3356 19.2035 41.0843C17.6043 43.0281 15.3521 44 12.5003 44C8.02255 44 4.81087 42.5005 2.89185 39.4598C0.959508 36.3635 0 32.3231 0 27.3386C0 23.8119 0.732958 20.6046 2.18555 17.7305C3.65146 14.8148 5.41056 12.2045 7.48949 9.92742C9.62173 7.59483 11.8872 5.62323 14.286 3.98486C16.6848 2.36037 18.6838 1.02745 20.2963 0L23.1081 4.88735ZM52 4.88735C49.9755 6.07779 47.9972 7.35154 46.0697 8.70558C44.381 9.89517 42.8333 11.2887 41.4587 12.8571C39.9528 14.5232 38.8068 16.2726 38.0338 18.0637C37.1948 20.2494 36.6651 22.5505 36.4613 24.8949H40.2194C43.4444 24.8949 45.9631 25.728 47.7888 27.4219C49.6545 29.0464 50.5874 31.4484 50.5874 34.6557C50.5472 37.0457 49.6595 39.3356 48.0953 41.0843C46.4962 43.0281 44.244 44 41.3788 44C36.9144 44 33.7027 42.5005 31.7837 39.4598C29.8514 36.3635 28.8919 32.3231 28.8919 27.3386C28.8919 23.8119 29.6248 20.6046 31.0774 17.7305C32.5433 14.8148 34.3024 12.2045 36.3813 9.92742C38.5136 7.59483 40.7791 5.62323 43.1779 3.98486C45.5766 2.36037 47.5756 1.02745 49.1881 0L52 4.88735Z" fill="url(#paint0_linear_993_6505)"/>
<defs>
<linearGradient id="paint0_linear_993_6505" x1="26" y1="0" x2="26" y2="44" gradientUnits="userSpaceOnUse">
<stop stop-color="#03989E"/>
<stop offset="1" stop-color="#9747FF"/>
</linearGradient>
</defs>
</svg>
